<svg width="1024" height="1024" viewBox="0 0 1024 1024" fill="none" xmlns="http://www.w3.org/2000/svg">
<rect width="1024" height="1024" fill="#F4F2EC"/>
<path d="M78.1932 493.731C78.1932 493.731 122.954 462.969 155.231 451.137C198.581 435.245 226.105 432.085 272.231 434.137C323.424 436.414 352.615 445.856 399.231 467.137C445.231 488.137 469.541 504.513 518.231 518.137C563.493 530.802 590.248 537.431 637.231 536.137C684.7 534.829 711.804 527.907 756.231 511.137C800.658 494.367 811.962 482.788 862.231 451.137C912.5 419.486 952.185 412.639 952.185 412.639" stroke="#D7211B" stroke-width="16" stroke-linecap="round"/>
<path d="M288.642 317.446L267.5 364.446L251.756 408.865C250.531 412.322 252.643 416.059 256.241 416.776C270.196 419.557 302.683 426.171 326 432C356.461 439.615 397.241 458.461 410.642 452.946C424.043 447.431 437.63 396.931 400.142 387.946C373.025 381.447 346.346 372.054 333.658 367.355C329.851 365.944 328.62 361.237 331.188 358.093L359.49 323.435" stroke="#D7211B" stroke-width="17" stroke-linecap="round"/>
<path d="M616 382.984L651 437.446L681.043 482.331C684.355 487.279 690.772 489.034 696.037 486.252C711.161 478.261 742.225 460.603 769 437.446C797.783 412.553 822.33 393.431 831.813 386.166C833.914 384.556 833.923 381.385 831.826 379.77L812.917 365.209C799.614 354.964 781.2 354.72 767.272 364.097C761.587 367.924 755.659 371.802 750.5 374.946C742.293 379.948 730.858 387.705 721.569 394.144C713.438 399.781 702.111 396.297 698.675 387.019L686.81 354.984" stroke="#D7211B" stroke-width="17" stroke-linecap="round"/>
<path d="M302.198 344.627C302.198 344.627 314.83 309.711 324.5 288C334.17 266.289 343.946 248.904 354.5 228.5C365.054 208.096 372.061 197.662 381 176.5C389.939 155.338 398.5 117 398.5 117" stroke="#D7211B" stroke-width="17" stroke-linecap="round"/>
<path d="M527 136.5C527 136.5 538.861 173.552 549.5 196C560.139 218.449 575.044 237.537 589.5 262.5C603.956 287.463 611.921 301.549 625.5 327C639.079 352.451 662.5 400 662.5 400" stroke="#D7211B" stroke-width="17" stroke-linecap="round"/>
<path d="M180.748 637.323C172.418 637.323 166.342 635.461 162.52 631.737C158.796 627.915 156.934 622.427 156.934 615.273V543.537L168.694 539.127V615.126C168.694 619.34 169.772 622.427 171.928 624.387C174.084 626.347 177.612 627.327 182.512 627.327C184.472 627.327 186.138 627.229 187.51 627.033C188.98 626.739 190.156 626.396 191.038 626.004V636C190.058 636.392 188.637 636.686 186.775 636.882C185.011 637.176 183.002 637.323 180.748 637.323ZM141.499 571.026V561.03H191.038V571.026H141.499ZM209.112 636V530.16H220.872V636H209.112ZM262.767 636V586.902C262.767 581.218 261.346 576.955 258.504 574.113C255.662 571.271 251.448 569.85 245.862 569.85C240.962 569.85 236.601 570.928 232.779 573.084C229.055 575.24 226.115 578.229 223.959 582.051C221.901 585.873 220.872 590.332 220.872 595.428L218.961 577.641C221.509 572.055 225.38 567.645 230.574 564.411C235.866 561.177 241.844 559.56 248.508 559.56C256.348 559.56 262.62 561.814 267.324 566.322C272.126 570.732 274.527 576.563 274.527 583.815V636H262.767ZM330.774 637.47C323.62 637.47 317.299 635.804 311.811 632.472C306.323 629.042 302.011 624.387 298.875 618.507C295.739 612.627 294.171 605.865 294.171 598.221C294.171 590.577 295.69 583.864 298.728 578.082C301.864 572.202 306.225 567.645 311.811 564.411C317.397 561.177 323.816 559.56 331.068 559.56C338.026 559.56 344.053 561.079 349.149 564.117C354.343 567.155 358.312 571.418 361.056 576.906C363.898 582.394 365.319 588.862 365.319 596.31C365.319 597.29 365.27 598.221 365.172 599.103C365.172 599.985 365.074 600.965 364.878 602.043H302.991V592.194H357.675L353.853 597.633C353.853 588.617 351.844 581.708 347.826 576.906C343.906 572.006 338.32 569.556 331.068 569.556C323.62 569.556 317.593 572.153 312.987 577.347C308.479 582.443 306.225 589.352 306.225 598.074C306.225 606.992 308.479 614.146 312.987 619.536C317.593 624.828 323.718 627.474 331.362 627.474C336.164 627.474 340.378 626.445 344.004 624.387C347.63 622.231 350.276 619.193 351.942 615.273H363.114C360.664 622.133 356.548 627.572 350.766 631.59C345.082 635.51 338.418 637.47 330.774 637.47Z" fill="#D7211B"/>
<path d="M162.52 631.737L160.013 634.18C160.034 634.201 160.056 634.223 160.077 634.244L162.52 631.737ZM156.934 543.537L155.705 540.26C154.339 540.772 153.434 542.078 153.434 543.537H156.934ZM168.694 539.127H172.194C172.194 537.979 171.631 536.904 170.688 536.25C169.744 535.596 168.54 535.447 167.465 535.85L168.694 539.127ZM171.928 624.387L169.574 626.977L171.928 624.387ZM187.51 627.033L188.005 630.498C188.069 630.489 188.133 630.478 188.196 630.465L187.51 627.033ZM191.038 626.004H194.538C194.538 624.819 193.939 623.715 192.945 623.069C191.952 622.424 190.699 622.324 189.617 622.806L191.038 626.004ZM191.038 636L192.338 639.25C193.667 638.718 194.538 637.431 194.538 636H191.038ZM186.775 636.882L186.409 633.401C186.339 633.409 186.269 633.418 186.2 633.43L186.775 636.882ZM141.499 571.026H137.999C137.999 572.959 139.566 574.526 141.499 574.526V571.026ZM141.499 561.03V557.53C139.566 557.53 137.999 559.097 137.999 561.03H141.499ZM191.038 561.03H194.538C194.538 559.097 192.971 557.53 191.038 557.53V561.03ZM191.038 571.026V574.526C192.971 574.526 194.538 572.959 194.538 571.026H191.038ZM180.748 637.323V633.823C172.835 633.823 167.846 632.04 164.963 629.23L162.52 631.737L160.077 634.244C164.838 638.882 172.001 640.823 180.748 640.823V637.323ZM162.52 631.737L165.027 629.294C162.132 626.324 160.434 621.834 160.434 615.273H156.934H153.434C153.434 623.02 155.46 629.506 160.013 634.18L162.52 631.737ZM156.934 615.273H160.434V543.537H156.934H153.434V615.273H156.934ZM156.934 543.537L158.163 546.814L169.923 542.404L168.694 539.127L167.465 535.85L155.705 540.26L156.934 543.537ZM168.694 539.127H165.194V615.126H168.694H172.194V539.127H168.694ZM168.694 615.126H165.194C165.194 619.878 166.412 624.103 169.574 626.977L171.928 624.387L174.282 621.797C173.132 620.751 172.194 618.802 172.194 615.126H168.694ZM171.928 624.387L169.574 626.977C172.69 629.81 177.293 630.827 182.512 630.827V627.327V623.827C177.931 623.827 175.478 622.884 174.282 621.797L171.928 624.387ZM182.512 627.327V630.827C184.576 630.827 186.417 630.725 188.005 630.498L187.51 627.033L187.015 623.568C185.859 623.733 184.368 623.827 182.512 623.827V627.327ZM187.51 627.033L188.196 630.465C189.797 630.145 191.25 629.74 192.459 629.202L191.038 626.004L189.617 622.806C189.062 623.052 188.163 623.333 186.824 623.601L187.51 627.033ZM191.038 626.004H187.538V636H191.038H194.538V626.004H191.038ZM191.038 636L189.738 632.75C189.203 632.964 188.157 633.217 186.409 633.401L186.775 636.882L187.141 640.363C189.117 640.155 190.913 639.82 192.338 639.25L191.038 636ZM186.775 636.882L186.2 633.43C184.667 633.685 182.856 633.823 180.748 633.823V637.323V640.823C183.148 640.823 185.355 640.667 187.35 640.334L186.775 636.882ZM141.499 571.026H144.999V561.03H141.499H137.999V571.026H141.499ZM141.499 561.03V564.53H191.038V561.03V557.53H141.499V561.03ZM191.038 561.03H187.538V571.026H191.038H194.538V561.03H191.038ZM191.038 571.026V567.526H141.499V571.026V574.526H191.038V571.026ZM209.112 636H205.612C205.612 637.933 207.179 639.5 209.112 639.5V636ZM209.112 530.16V526.66C207.179 526.66 205.612 528.227 205.612 530.16H209.112ZM220.872 530.16H224.372C224.372 528.227 222.805 526.66 220.872 526.66V530.16ZM220.872 636V639.5C222.805 639.5 224.372 637.933 224.372 636H220.872ZM262.767 636H259.267C259.267 637.933 260.834 639.5 262.767 639.5V636ZM232.779 573.084L231.059 570.036C231.048 570.042 231.037 570.048 231.025 570.055L232.779 573.084ZM223.959 582.051L220.911 580.331C220.899 580.351 220.888 580.371 220.877 580.392L223.959 582.051ZM220.872 595.428L217.392 595.802C217.591 597.651 219.202 599.022 221.059 598.923C222.917 598.823 224.372 597.288 224.372 595.428H220.872ZM218.961 577.641L215.777 576.188C215.516 576.76 215.414 577.391 215.481 578.015L218.961 577.641ZM230.574 564.411L228.749 561.425C228.741 561.43 228.732 561.435 228.724 561.44L230.574 564.411ZM267.324 566.322L264.902 568.849C264.92 568.866 264.938 568.883 264.957 568.9L267.324 566.322ZM274.527 636V639.5C276.46 639.5 278.027 637.933 278.027 636H274.527ZM209.112 636H212.612V530.16H209.112H205.612V636H209.112ZM209.112 530.16V533.66H220.872V530.16V526.66H209.112V530.16ZM220.872 530.16H217.372V636H220.872H224.372V530.16H220.872ZM220.872 636V632.5H209.112V636V639.5H220.872V636ZM262.767 636H266.267V586.902H262.767H259.267V636H262.767ZM262.767 586.902H266.267C266.267 580.678 264.709 575.368 260.979 571.638L258.504 574.113L256.029 576.588C257.983 578.542 259.267 581.758 259.267 586.902H262.767ZM258.504 574.113L260.979 571.638C257.259 567.919 252.008 566.35 245.862 566.35V569.85V573.35C250.888 573.35 254.065 574.623 256.029 576.588L258.504 574.113ZM245.862 569.85V566.35C240.431 566.35 235.465 567.55 231.059 570.036L232.779 573.084L234.499 576.132C237.737 574.306 241.493 573.35 245.862 573.35V569.85ZM232.779 573.084L231.025 570.055C226.75 572.531 223.367 575.976 220.911 580.331L223.959 582.051L227.008 583.771C228.863 580.482 231.361 577.949 234.533 576.113L232.779 573.084ZM223.959 582.051L220.877 580.392C218.501 584.806 217.372 589.854 217.372 595.428H220.872H224.372C224.372 590.81 225.302 586.94 227.041 583.71L223.959 582.051ZM220.872 595.428L224.352 595.054L222.441 577.267L218.961 577.641L215.481 578.015L217.392 595.802L220.872 595.428ZM218.961 577.641L222.145 579.094C224.409 574.132 227.817 570.251 232.424 567.382L230.574 564.411L228.724 561.44C222.944 565.039 218.609 569.978 215.777 576.188L218.961 577.641ZM230.574 564.411L232.399 567.397C237.101 564.524 242.438 563.06 248.508 563.06V559.56V556.06C241.25 556.06 234.632 557.83 228.749 561.425L230.574 564.411ZM248.508 559.56V563.06C255.641 563.06 260.978 565.088 264.902 568.849L267.324 566.322L269.746 563.795C264.262 558.54 257.056 556.06 248.508 556.06V559.56ZM267.324 566.322L264.957 568.9C268.952 572.569 271.027 577.421 271.027 583.815H274.527H278.027C278.027 575.705 275.301 568.895 269.692 563.744L267.324 566.322ZM274.527 583.815H271.027V636H274.527H278.027V583.815H274.527ZM274.527 636V632.5H262.767V636V639.5H274.527V636ZM311.811 632.472L309.956 635.44C309.969 635.448 309.982 635.456 309.995 635.464L311.811 632.472ZM298.875 618.507L301.963 616.86L298.875 618.507ZM298.728 578.082L295.64 576.435C295.637 576.441 295.633 576.448 295.63 576.454L298.728 578.082ZM311.811 564.411L313.565 567.44L313.565 567.44L311.811 564.411ZM349.149 564.117L347.357 567.123C347.365 567.128 347.374 567.133 347.382 567.138L349.149 564.117ZM361.056 576.906L357.926 578.471C357.933 578.486 357.941 578.501 357.948 578.515L361.056 576.906ZM365.172 599.103L361.694 598.716C361.679 598.845 361.672 598.974 361.672 599.103H365.172ZM364.878 602.043V605.543C366.57 605.543 368.019 604.333 368.322 602.669L364.878 602.043ZM302.991 602.043H299.491C299.491 603.976 301.058 605.543 302.991 605.543V602.043ZM302.991 592.194V588.694C301.058 588.694 299.491 590.261 299.491 592.194H302.991ZM357.675 592.194L360.539 594.206C361.29 593.138 361.383 591.74 360.781 590.58C360.179 589.421 358.981 588.694 357.675 588.694V592.194ZM353.853 597.633H350.353C350.353 599.159 351.342 600.51 352.798 600.97C354.253 601.43 355.839 600.894 356.717 599.645L353.853 597.633ZM347.826 576.906L345.093 579.092C345.109 579.112 345.125 579.132 345.142 579.152L347.826 576.906ZM312.987 577.347L310.368 575.025L310.366 575.028L312.987 577.347ZM312.987 619.536L310.302 621.781C310.317 621.799 310.332 621.817 310.347 621.834L312.987 619.536ZM344.004 624.387L345.732 627.431C345.752 627.419 345.773 627.407 345.793 627.395L344.004 624.387ZM351.942 615.273V611.773C350.538 611.773 349.27 612.612 348.721 613.904L351.942 615.273ZM363.114 615.273L366.41 616.45C366.793 615.378 366.631 614.187 365.975 613.257C365.319 612.326 364.252 611.773 363.114 611.773V615.273ZM350.766 631.59L352.753 634.471L352.763 634.464L350.766 631.59ZM330.774 637.47V633.97C324.185 633.97 318.507 632.443 313.628 629.48L311.811 632.472L309.995 635.464C316.091 639.165 323.055 640.97 330.774 640.97V637.47ZM311.811 632.472L313.666 629.504C308.714 626.409 304.82 622.216 301.963 616.86L298.875 618.507L295.787 620.154C299.202 626.558 303.933 631.675 309.956 635.44L311.811 632.472ZM298.875 618.507L301.963 616.86C299.135 611.557 297.671 605.376 297.671 598.221H294.171H290.671C290.671 606.354 292.343 613.697 295.787 620.154L298.875 618.507ZM294.171 598.221H297.671C297.671 591.047 299.094 584.911 301.826 579.71L298.728 578.082L295.63 576.454C292.286 582.817 290.671 590.107 290.671 598.221H294.171ZM298.728 578.082L301.816 579.729C304.656 574.406 308.563 570.336 313.565 567.44L311.811 564.411L310.058 561.382C303.887 564.954 299.073 569.998 295.64 576.435L298.728 578.082ZM311.811 564.411L313.565 567.44C318.554 564.551 324.354 563.06 331.068 563.06V559.56V556.06C323.278 556.06 316.24 557.803 310.058 561.382L311.811 564.411ZM331.068 559.56V563.06C337.505 563.06 342.89 564.461 347.357 567.123L349.149 564.117L350.941 561.111C345.216 557.697 338.547 556.06 331.068 556.06V559.56ZM349.149 564.117L347.382 567.138C351.978 569.826 355.479 573.578 357.926 578.471L361.056 576.906L364.187 575.341C361.145 569.258 356.708 564.484 350.916 561.096L349.149 564.117ZM361.056 576.906L357.948 578.515C360.485 583.414 361.819 589.308 361.819 596.31H365.319H368.819C368.819 588.416 367.311 581.374 364.164 575.297L361.056 576.906ZM365.319 596.31H361.819C361.819 597.174 361.776 597.975 361.694 598.716L365.172 599.103L368.651 599.49C368.764 598.467 368.819 597.406 368.819 596.31H365.319ZM365.172 599.103H361.672C361.672 599.732 361.602 600.498 361.435 601.417L364.878 602.043L368.322 602.669C368.547 601.432 368.672 600.238 368.672 599.103H365.172ZM364.878 602.043V598.543H302.991V602.043V605.543H364.878V602.043ZM302.991 602.043H306.491V592.194H302.991H299.491V602.043H302.991ZM302.991 592.194V595.694H357.675V592.194V588.694H302.991V592.194ZM357.675 592.194L354.811 590.182L350.989 595.621L353.853 597.633L356.717 599.645L360.539 594.206L357.675 592.194ZM353.853 597.633H357.353C357.353 588.149 355.245 580.318 350.51 574.66L347.826 576.906L345.142 579.152C348.443 583.098 350.353 589.085 350.353 597.633H353.853ZM347.826 576.906L350.559 574.72C345.867 568.854 339.197 566.056 331.068 566.056V569.556V573.056C337.443 573.056 341.945 575.158 345.093 579.092L347.826 576.906ZM331.068 569.556V566.056C322.701 566.056 315.691 569.022 310.368 575.025L312.987 577.347L315.606 579.669C319.495 575.284 324.539 573.056 331.068 573.056V569.556ZM312.987 577.347L310.366 575.028C305.147 580.928 302.725 588.745 302.725 598.074H306.225H309.725C309.725 589.959 311.812 583.958 315.609 579.666L312.987 577.347ZM306.225 598.074H302.725C302.725 607.587 305.139 615.608 310.302 621.781L312.987 619.536L315.672 617.291C311.819 612.684 309.725 606.397 309.725 598.074H306.225ZM312.987 619.536L310.347 621.834C315.682 627.963 322.808 630.974 331.362 630.974V627.474V623.974C324.628 623.974 319.504 621.693 315.627 617.238L312.987 619.536ZM331.362 627.474V630.974C336.677 630.974 341.504 629.831 345.732 627.431L344.004 624.387L342.277 621.343C339.253 623.059 335.652 623.974 331.362 623.974V627.474ZM344.004 624.387L345.793 627.395C350.065 624.855 353.209 621.24 355.163 616.642L351.942 615.273L348.721 613.904C347.343 617.146 345.195 619.607 342.215 621.379L344.004 624.387ZM351.942 615.273V618.773H363.114V615.273V611.773H351.942V615.273ZM363.114 615.273L359.818 614.096C357.604 620.294 353.93 625.129 348.769 628.716L350.766 631.59L352.763 634.464C359.166 630.015 363.724 623.972 366.41 616.45L363.114 615.273ZM350.766 631.59L348.779 628.709C343.741 632.183 337.788 633.97 330.774 633.97V637.47V640.97C339.049 640.97 346.423 638.837 352.753 634.471L350.766 631.59Z" fill="#D7211B"/>
<path d="M153.88 915V781.08H168.76V915H153.88ZM221.77 915V852.876C221.77 845.684 219.972 840.29 216.376 836.694C212.78 833.098 207.448 831.3 200.38 831.3C194.18 831.3 188.662 832.664 183.826 835.392C179.114 838.12 175.394 841.902 172.666 846.738C170.062 851.574 168.76 857.216 168.76 863.664L166.342 841.158C169.566 834.09 174.464 828.51 181.036 824.418C187.732 820.326 195.296 818.28 203.728 818.28C213.648 818.28 221.584 821.132 227.536 826.836C233.612 832.416 236.65 839.794 236.65 848.97V915H221.77ZM268.946 915V820.14H283.826V915H268.946ZM267.83 798.564V781.08H284.942V798.564H267.83ZM317.349 915V777.36H332.229V915H317.349ZM379.287 915L328.881 865.71L377.427 820.14H397.887L343.389 869.988L344.319 861.246L399.747 915H379.287ZM453.852 916.86C444.8 916.86 436.802 914.752 429.858 910.536C422.914 906.196 417.458 900.306 413.49 892.866C409.522 885.426 407.538 876.87 407.538 867.198C407.538 857.526 409.46 849.032 413.304 841.716C417.272 834.276 422.79 828.51 429.858 824.418C436.926 820.326 445.048 818.28 454.224 818.28C463.028 818.28 470.654 820.202 477.102 824.046C483.674 827.89 488.696 833.284 492.168 840.228C495.764 847.172 497.562 855.356 497.562 864.78C497.562 866.02 497.5 867.198 497.376 868.314C497.376 869.43 497.252 870.67 497.004 872.034H418.698V859.572H487.89L483.054 866.454C483.054 855.046 480.512 846.304 475.428 840.228C470.468 834.028 463.4 830.928 454.224 830.928C444.8 830.928 437.174 834.214 431.346 840.786C425.642 847.234 422.79 855.976 422.79 867.012C422.79 878.296 425.642 887.348 431.346 894.168C437.174 900.864 444.924 904.212 454.596 904.212C460.672 904.212 466.004 902.91 470.592 900.306C475.18 897.578 478.528 893.734 480.636 888.774H494.772C491.672 897.454 486.464 904.336 479.148 909.42C471.956 914.38 463.524 916.86 453.852 916.86ZM523.686 915V820.14H537.636V844.32H538.566V915H523.686ZM538.566 865.524L536.148 843.018C538.38 834.958 542.348 828.82 548.052 824.604C553.756 820.388 560.328 818.28 567.768 818.28C570.868 818.28 572.976 818.528 574.092 819.024V833.346C573.472 833.098 572.604 832.974 571.488 832.974C570.372 832.85 569.008 832.788 567.396 832.788C557.972 832.788 550.78 835.64 545.82 841.344C540.984 846.924 538.566 854.984 538.566 865.524Z" fill="#D7211B"/>
<path d="M153.88 915H149.38C149.38 917.485 151.395 919.5 153.88 919.5V915ZM153.88 781.08V776.58C151.395 776.58 149.38 778.595 149.38 781.08H153.88ZM168.76 781.08H173.26C173.26 778.595 171.245 776.58 168.76 776.58V781.08ZM168.76 915V919.5C171.245 919.5 173.26 917.485 173.26 915H168.76ZM221.77 915H217.27C217.27 917.485 219.285 919.5 221.77 919.5V915ZM183.826 835.392L181.615 831.473C181.6 831.481 181.586 831.489 181.571 831.498L183.826 835.392ZM172.666 846.738L168.747 844.527C168.732 844.553 168.718 844.579 168.704 844.605L172.666 846.738ZM168.76 863.664L164.286 864.145C164.541 866.523 166.612 868.285 169.001 868.158C171.389 868.03 173.26 866.056 173.26 863.664H168.76ZM166.342 841.158L162.248 839.29C161.913 840.025 161.782 840.836 161.868 841.639L166.342 841.158ZM181.036 824.418L178.689 820.578C178.679 820.585 178.668 820.591 178.657 820.598L181.036 824.418ZM227.536 826.836L224.422 830.085C224.445 830.107 224.469 830.129 224.492 830.15L227.536 826.836ZM236.65 915V919.5C239.135 919.5 241.15 917.485 241.15 915H236.65ZM153.88 915H158.38V781.08H153.88H149.38V915H153.88ZM153.88 781.08V785.58H168.76V781.08V776.58H153.88V781.08ZM168.76 781.08H164.26V915H168.76H173.26V781.08H168.76ZM168.76 915V910.5H153.88V915V919.5H168.76V915ZM221.77 915H226.27V852.876H221.77H217.27V915H221.77ZM221.77 852.876H226.27C226.27 844.99 224.296 838.25 219.558 833.512L216.376 836.694L213.194 839.876C215.648 842.33 217.27 846.378 217.27 852.876H221.77ZM216.376 836.694L219.558 833.512C214.834 828.788 208.168 826.8 200.38 826.8V831.3V835.8C206.728 835.8 210.726 837.408 213.194 839.876L216.376 836.694ZM200.38 831.3V826.8C193.498 826.8 187.202 828.321 181.615 831.473L183.826 835.392L186.037 839.311C190.122 837.007 194.862 835.8 200.38 835.8V831.3ZM183.826 835.392L181.571 831.498C176.15 834.636 171.861 839.006 168.747 844.527L172.666 846.738L176.585 848.949C178.927 844.798 182.078 841.604 186.081 839.286L183.826 835.392ZM172.666 846.738L168.704 844.605C165.69 850.202 164.26 856.601 164.26 863.664H168.76H173.26C173.26 857.831 174.434 852.946 176.628 848.871L172.666 846.738ZM168.76 863.664L173.234 863.183L170.816 840.677L166.342 841.158L161.868 841.639L164.286 864.145L168.76 863.664ZM166.342 841.158L170.436 843.026C173.294 836.76 177.597 831.86 183.415 828.238L181.036 824.418L178.657 820.598C171.331 825.16 165.838 831.42 162.248 839.29L166.342 841.158ZM181.036 824.418L183.383 828.258C189.319 824.63 196.06 822.78 203.728 822.78V818.28V813.78C194.532 813.78 186.145 816.022 178.689 820.578L181.036 824.418ZM203.728 818.28V822.78C212.738 822.78 219.473 825.342 224.422 830.085L227.536 826.836L230.65 823.587C223.695 816.922 214.558 813.78 203.728 813.78V818.28ZM227.536 826.836L224.492 830.15C229.53 834.777 232.15 840.897 232.15 848.97H236.65H241.15C241.15 838.691 237.694 830.055 230.58 823.522L227.536 826.836ZM236.65 848.97H232.15V915H236.65H241.15V848.97H236.65ZM236.65 915V910.5H221.77V915V919.5H236.65V915ZM268.946 915H264.446C264.446 917.485 266.46 919.5 268.946 919.5V915ZM268.946 820.14V815.64C266.46 815.64 264.446 817.655 264.446 820.14H268.946ZM283.826 820.14H288.326C288.326 817.655 286.311 815.64 283.826 815.64V820.14ZM283.826 915V919.5C286.311 919.5 288.326 917.485 288.326 915H283.826ZM267.83 798.564H263.33C263.33 801.049 265.344 803.064 267.83 803.064V798.564ZM267.83 781.08V776.58C265.344 776.58 263.33 778.595 263.33 781.08H267.83ZM284.942 781.08H289.442C289.442 778.595 287.427 776.58 284.942 776.58V781.08ZM284.942 798.564V803.064C287.427 803.064 289.442 801.049 289.442 798.564H284.942ZM268.946 915H273.446V820.14H268.946H264.446V915H268.946ZM268.946 820.14V824.64H283.826V820.14V815.64H268.946V820.14ZM283.826 820.14H279.326V915H283.826H288.326V820.14H283.826ZM283.826 915V910.5H268.946V915V919.5H283.826V915ZM267.83 798.564H272.33V781.08H267.83H263.33V798.564H267.83ZM267.83 781.08V785.58H284.942V781.08V776.58H267.83V781.08ZM284.942 781.08H280.442V798.564H284.942H289.442V781.08H284.942ZM284.942 798.564V794.064H267.83V798.564V803.064H284.942V798.564ZM317.349 915H312.849C312.849 917.485 314.864 919.5 317.349 919.5V915ZM317.349 777.36V772.86C314.864 772.86 312.849 774.875 312.849 777.36H317.349ZM332.229 777.36H336.729C336.729 774.875 334.715 772.86 332.229 772.86V777.36ZM332.229 915V919.5C334.715 919.5 336.729 917.485 336.729 915H332.229ZM379.287 915L376.141 918.217C376.982 919.04 378.111 919.5 379.287 919.5V915ZM328.881 865.71L325.801 862.429C324.907 863.269 324.394 864.437 324.382 865.664C324.369 866.891 324.858 868.07 325.735 868.927L328.881 865.71ZM377.427 820.14V815.64C376.283 815.64 375.182 816.076 374.347 816.859L377.427 820.14ZM397.887 820.14L400.924 823.46C402.294 822.207 402.754 820.242 402.082 818.511C401.41 816.78 399.744 815.64 397.887 815.64V820.14ZM343.389 869.988L338.915 869.512C338.717 871.372 339.69 873.16 341.36 874.004C343.029 874.848 345.046 874.571 346.426 873.308L343.389 869.988ZM344.319 861.246L347.452 858.016C346.217 856.817 344.406 856.429 342.787 857.015C341.169 857.601 340.027 859.058 339.845 860.77L344.319 861.246ZM399.747 915V919.5C401.58 919.5 403.23 918.389 403.918 916.69C404.606 914.992 404.196 913.045 402.88 911.77L399.747 915ZM317.349 915H321.849V777.36H317.349H312.849V915H317.349ZM317.349 777.36V781.86H332.229V777.36V772.86H317.349V777.36ZM332.229 777.36H327.729V915H332.229H336.729V777.36H332.229ZM332.229 915V910.5H317.349V915V919.5H332.229V915ZM379.287 915L382.433 911.783L332.027 862.493L328.881 865.71L325.735 868.927L376.141 918.217L379.287 915ZM328.881 865.71L331.961 868.991L380.507 823.421L377.427 820.14L374.347 816.859L325.801 862.429L328.881 865.71ZM377.427 820.14V824.64H397.887V820.14V815.64H377.427V820.14ZM397.887 820.14L394.85 816.82L340.352 866.668L343.389 869.988L346.426 873.308L400.924 823.46L397.887 820.14ZM343.389 869.988L347.864 870.464L348.794 861.722L344.319 861.246L339.845 860.77L338.915 869.512L343.389 869.988ZM344.319 861.246L341.186 864.476L396.614 918.23L399.747 915L402.88 911.77L347.452 858.016L344.319 861.246ZM399.747 915V910.5H379.287V915V919.5H399.747V915ZM429.858 910.536L427.473 914.352C427.489 914.362 427.506 914.372 427.522 914.383L429.858 910.536ZM413.49 892.866L417.46 890.748L413.49 892.866ZM413.304 841.716L409.333 839.598C409.329 839.607 409.324 839.615 409.32 839.623L413.304 841.716ZM429.858 824.418L432.112 828.312L432.112 828.312L429.858 824.418ZM477.102 824.046L474.797 827.911C474.808 827.918 474.819 827.924 474.83 827.93L477.102 824.046ZM492.168 840.228L488.143 842.24C488.152 842.259 488.162 842.278 488.172 842.297L492.168 840.228ZM497.376 868.314L492.903 867.817C492.885 867.982 492.876 868.148 492.876 868.314H497.376ZM497.004 872.034V876.534C499.178 876.534 501.042 874.979 501.431 872.839L497.004 872.034ZM418.698 872.034H414.198C414.198 874.519 416.212 876.534 418.698 876.534V872.034ZM418.698 859.572V855.072C416.212 855.072 414.198 857.087 414.198 859.572H418.698ZM487.89 859.572L491.571 862.159C492.537 860.785 492.657 858.988 491.883 857.497C491.109 856.007 489.569 855.072 487.89 855.072V859.572ZM483.054 866.454H478.554C478.554 868.417 479.825 870.153 481.697 870.745C483.568 871.336 485.607 870.647 486.735 869.041L483.054 866.454ZM475.428 840.228L471.914 843.039C471.934 843.065 471.955 843.09 471.976 843.116L475.428 840.228ZM431.346 840.786L427.979 837.8L427.975 837.804L431.346 840.786ZM431.346 894.168L427.894 897.055C427.913 897.078 427.932 897.1 427.951 897.122L431.346 894.168ZM470.592 900.306L472.813 904.22C472.839 904.205 472.865 904.189 472.891 904.174L470.592 900.306ZM480.636 888.774V884.274C478.83 884.274 477.2 885.353 476.494 887.014L480.636 888.774ZM494.772 888.774L499.009 890.288C499.502 888.909 499.293 887.378 498.45 886.182C497.607 884.986 496.235 884.274 494.772 884.274V888.774ZM479.148 909.42L481.702 913.124C481.707 913.121 481.711 913.118 481.715 913.115L479.148 909.42ZM453.852 916.86V912.36C445.526 912.36 438.355 910.43 432.193 906.689L429.858 910.536L427.522 914.383C435.248 919.074 444.073 921.36 453.852 921.36V916.86ZM429.858 910.536L432.243 906.72C425.987 902.81 421.069 897.515 417.46 890.748L413.49 892.866L409.519 894.984C413.846 903.097 419.84 909.582 427.473 914.352L429.858 910.536ZM413.49 892.866L417.46 890.748C413.888 884.05 412.038 876.241 412.038 867.198H407.538H403.038C403.038 877.499 405.155 886.802 409.519 894.984L413.49 892.866ZM407.538 867.198H412.038C412.038 858.131 413.836 850.378 417.287 843.809L413.304 841.716L409.32 839.623C405.083 847.686 403.038 856.921 403.038 867.198H407.538ZM413.304 841.716L417.274 843.834C420.861 837.109 425.795 831.97 432.112 828.312L429.858 824.418L427.603 820.524C419.784 825.05 413.682 831.443 409.333 839.598L413.304 841.716ZM429.858 824.418L432.112 828.312C438.413 824.664 445.739 822.78 454.224 822.78V818.28V813.78C444.356 813.78 435.438 815.988 427.603 820.524L429.858 824.418ZM454.224 818.28V822.78C462.358 822.78 469.158 824.55 474.797 827.911L477.102 824.046L479.406 820.181C472.149 815.854 463.697 813.78 454.224 813.78V818.28ZM477.102 824.046L474.83 827.93C480.632 831.324 485.053 836.061 488.143 842.24L492.168 840.228L496.192 838.216C492.338 830.507 486.715 824.455 479.373 820.162L477.102 824.046ZM492.168 840.228L488.172 842.297C491.375 848.483 493.062 855.93 493.062 864.78H497.562H502.062C502.062 854.782 500.152 845.861 496.163 838.159L492.168 840.228ZM497.562 864.78H493.062C493.062 865.871 493.007 866.882 492.903 867.817L497.376 868.314L501.848 868.811C501.992 867.514 502.062 866.169 502.062 864.78H497.562ZM497.376 868.314H492.876C492.876 869.105 492.787 870.07 492.576 871.229L497.004 872.034L501.431 872.839C501.716 871.27 501.876 869.755 501.876 868.314H497.376ZM497.004 872.034V867.534H418.698V872.034V876.534H497.004V872.034ZM418.698 872.034H423.198V859.572H418.698H414.198V872.034H418.698ZM418.698 859.572V864.072H487.89V859.572V855.072H418.698V859.572ZM487.89 859.572L484.208 856.985L479.372 863.867L483.054 866.454L486.735 869.041L491.571 862.159L487.89 859.572ZM483.054 866.454H487.554C487.554 854.445 484.884 844.517 478.879 837.34L475.428 840.228L471.976 843.116C476.139 848.091 478.554 855.647 478.554 866.454H483.054ZM475.428 840.228L478.941 837.417C472.988 829.976 464.527 826.428 454.224 826.428V830.928V835.428C462.272 835.428 467.947 838.08 471.914 843.039L475.428 840.228ZM454.224 830.928V826.428C443.618 826.428 434.729 830.189 427.979 837.8L431.346 840.786L434.712 843.772C439.619 838.239 445.981 835.428 454.224 835.428V830.928ZM431.346 840.786L427.975 837.804C421.357 845.286 418.29 855.196 418.29 867.012H422.79H427.29C427.29 856.756 429.926 849.182 434.716 843.768L431.346 840.786ZM422.79 867.012H418.29C418.29 879.061 421.347 889.227 427.894 897.055L431.346 894.168L434.797 891.281C429.936 885.469 427.29 877.531 427.29 867.012H422.79ZM431.346 894.168L427.951 897.122C434.716 904.895 443.753 908.712 454.596 908.712V904.212V899.712C446.094 899.712 439.631 896.833 434.74 891.214L431.346 894.168ZM454.596 904.212V908.712C461.331 908.712 467.451 907.263 472.813 904.22L470.592 900.306L468.37 896.392C464.556 898.557 460.012 899.712 454.596 899.712V904.212ZM470.592 900.306L472.891 904.174C478.31 900.952 482.299 896.365 484.777 890.534L480.636 888.774L476.494 887.014C474.756 891.103 472.049 894.204 468.292 896.438L470.592 900.306ZM480.636 888.774V893.274H494.772V888.774V884.274H480.636V888.774ZM494.772 888.774L490.534 887.26C487.738 895.089 483.097 901.195 476.58 905.725L479.148 909.42L481.715 913.115C489.83 907.477 495.605 899.819 499.009 890.288L494.772 888.774ZM479.148 909.42L476.593 905.716C470.232 910.102 462.713 912.36 453.852 912.36V916.86V921.36C464.334 921.36 473.679 918.658 481.702 913.124L479.148 909.42ZM523.686 915H519.186C519.186 917.485 521.201 919.5 523.686 919.5V915ZM523.686 820.14V815.64C521.201 815.64 519.186 817.655 519.186 820.14H523.686ZM537.636 820.14H542.136C542.136 817.655 540.121 815.64 537.636 815.64V820.14ZM537.636 844.32H533.136C533.136 846.805 535.151 848.82 537.636 848.82V844.32ZM538.566 844.32H543.066C543.066 841.835 541.051 839.82 538.566 839.82V844.32ZM538.566 915V919.5C541.051 919.5 543.066 917.485 543.066 915H538.566ZM538.566 865.524L534.092 866.005C534.347 868.383 536.418 870.145 538.806 870.018C541.195 869.89 543.066 867.916 543.066 865.524H538.566ZM536.148 843.018L531.811 841.817C531.66 842.364 531.613 842.934 531.674 843.499L536.148 843.018ZM548.052 824.604L550.727 828.223L550.727 828.223L548.052 824.604ZM574.092 819.024H578.592C578.592 817.246 577.544 815.634 575.919 814.912L574.092 819.024ZM574.092 833.346L572.421 837.524C573.807 838.079 575.378 837.909 576.615 837.072C577.851 836.235 578.592 834.839 578.592 833.346H574.092ZM571.488 832.974L570.991 837.446C571.156 837.465 571.322 837.474 571.488 837.474V832.974ZM545.82 841.344L542.424 838.391L542.419 838.397L545.82 841.344ZM523.686 915H528.186V820.14H523.686H519.186V915H523.686ZM523.686 820.14V824.64H537.636V820.14V815.64H523.686V820.14ZM537.636 820.14H533.136V844.32H537.636H542.136V820.14H537.636ZM537.636 844.32V848.82H538.566V844.32V839.82H537.636V844.32ZM538.566 844.32H534.066V915H538.566H543.066V844.32H538.566ZM538.566 915V910.5H523.686V915V919.5H538.566V915ZM538.566 865.524L543.04 865.043L540.622 842.537L536.148 843.018L531.674 843.499L534.092 866.005L538.566 865.524ZM536.148 843.018L540.485 844.219C542.498 836.948 545.97 831.739 550.727 828.223L548.052 824.604L545.377 820.985C538.726 825.901 534.261 832.968 531.811 841.817L536.148 843.018ZM548.052 824.604L550.727 828.223C555.617 824.608 561.24 822.78 567.768 822.78V818.28V813.78C559.415 813.78 551.895 816.168 545.377 820.985L548.052 824.604ZM567.768 818.28V822.78C569.214 822.78 570.328 822.839 571.148 822.935C572.032 823.039 572.316 823.159 572.264 823.136L574.092 819.024L575.919 814.912C574.752 814.393 573.424 814.141 572.2 813.997C570.912 813.845 569.421 813.78 567.768 813.78V818.28ZM574.092 819.024H569.592V833.346H574.092H578.592V819.024H574.092ZM574.092 833.346L575.763 829.168C574.372 828.611 572.844 828.474 571.488 828.474V832.974V837.474C571.887 837.474 572.164 837.497 572.339 837.522C572.522 837.548 572.528 837.567 572.421 837.524L574.092 833.346ZM571.488 832.974L571.985 828.502C570.65 828.353 569.109 828.288 567.396 828.288V832.788V837.288C568.907 837.288 570.094 837.347 570.991 837.446L571.488 832.974ZM567.396 832.788V828.288C557.017 828.288 548.443 831.469 542.424 838.391L545.82 841.344L549.216 844.297C553.117 839.811 558.927 837.288 567.396 837.288V832.788ZM545.82 841.344L542.419 838.397C536.623 845.084 534.066 854.358 534.066 865.524H538.566H543.066C543.066 855.61 545.344 848.764 549.22 844.291L545.82 841.344Z" fill="#D7211B"/>
<path d="M212.098 755C211.602 752.892 211.23 750.474 210.982 747.746C210.858 745.018 210.796 741.546 210.796 737.33H209.866V691.946C209.866 684.754 208.192 679.484 204.844 676.136C201.62 672.664 196.35 670.928 189.034 670.928C181.842 670.928 176.076 672.416 171.736 675.392C167.52 678.244 165.164 682.336 164.668 687.668H150.346C150.966 678.492 154.81 671.3 161.878 666.092C168.946 660.884 178.184 658.28 189.592 658.28C201.372 658.28 210.114 661.07 215.818 666.65C221.522 672.23 224.374 680.6 224.374 691.76V737.33C224.374 740.058 224.56 742.91 224.932 745.886C225.304 748.738 225.8 751.776 226.42 755H212.098ZM179.548 756.86C169.752 756.86 161.94 754.504 156.112 749.792C150.408 744.956 147.556 738.384 147.556 730.076C147.556 721.768 150.408 715.32 156.112 710.732C161.816 706.144 170.124 702.92 181.036 701.06L214.144 695.48V707.756L183.268 712.592C176.324 713.708 171.054 715.568 167.458 718.172C163.862 720.776 162.064 724.558 162.064 729.518C162.064 734.354 163.676 738.012 166.9 740.492C170.248 742.972 175.146 744.212 181.594 744.212C189.902 744.212 196.66 742.352 201.868 738.632C207.2 734.788 209.866 729.828 209.866 723.752L212.284 736.958C210.3 743.282 206.394 748.18 200.566 751.652C194.862 755.124 187.856 756.86 179.548 756.86ZM258.636 755V660.14H272.586V682.46H273.516V755H258.636ZM322.62 755V692.132C322.62 684.94 321.008 679.67 317.784 676.322C314.56 672.974 309.91 671.3 303.834 671.3C298.13 671.3 292.984 672.664 288.396 675.392C283.808 678.12 280.15 681.902 277.422 686.738C274.818 691.574 273.516 697.216 273.516 703.664L271.098 681.158C274.322 674.09 279.158 668.51 285.606 664.418C292.054 660.326 299.06 658.28 306.624 658.28C315.8 658.28 323.24 661.008 328.944 666.464C334.648 671.796 337.5 679.05 337.5 688.226V755H322.62ZM386.604 755V692.132C386.604 684.94 384.992 679.67 381.768 676.322C378.544 672.974 373.894 671.3 367.818 671.3C362.114 671.3 356.968 672.664 352.38 675.392C347.792 678.12 344.134 681.902 341.406 686.738C338.802 691.574 337.5 697.216 337.5 703.664L333.78 681.158C337.004 674.09 341.964 668.51 348.66 664.418C355.356 660.326 362.548 658.28 370.236 658.28C379.412 658.28 386.914 661.008 392.742 666.464C398.57 671.796 401.484 679.05 401.484 688.226V755H386.604ZM493.358 755C492.862 752.892 492.49 750.474 492.242 747.746C492.118 745.018 492.056 741.546 492.056 737.33H491.126V691.946C491.126 684.754 489.452 679.484 486.104 676.136C482.88 672.664 477.61 670.928 470.294 670.928C463.102 670.928 457.336 672.416 452.996 675.392C448.78 678.244 446.424 682.336 445.928 687.668H431.606C432.226 678.492 436.07 671.3 443.138 666.092C450.206 660.884 459.444 658.28 470.852 658.28C482.632 658.28 491.374 661.07 497.078 666.65C502.782 672.23 505.634 680.6 505.634 691.76V737.33C505.634 740.058 505.82 742.91 506.192 745.886C506.564 748.738 507.06 751.776 507.68 755H493.358ZM460.808 756.86C451.012 756.86 443.2 754.504 437.372 749.792C431.668 744.956 428.816 738.384 428.816 730.076C428.816 721.768 431.668 715.32 437.372 710.732C443.076 706.144 451.384 702.92 462.296 701.06L495.404 695.48V707.756L464.528 712.592C457.584 713.708 452.314 715.568 448.718 718.172C445.122 720.776 443.324 724.558 443.324 729.518C443.324 734.354 444.936 738.012 448.16 740.492C451.508 742.972 456.406 744.212 462.854 744.212C471.162 744.212 477.92 742.352 483.128 738.632C488.46 734.788 491.126 729.828 491.126 723.752L493.544 736.958C491.56 743.282 487.654 748.18 481.826 751.652C476.122 755.124 469.116 756.86 460.808 756.86ZM575.296 756.674C564.756 756.674 557.068 754.318 552.232 749.606C547.52 744.77 545.164 737.826 545.164 728.774V638.006L560.044 632.426V728.588C560.044 733.92 561.408 737.826 564.136 740.306C566.864 742.786 571.328 744.026 577.528 744.026C580.008 744.026 582.116 743.902 583.852 743.654C585.712 743.282 587.2 742.848 588.316 742.352V755C587.076 755.496 585.278 755.868 582.922 756.116C580.69 756.488 578.148 756.674 575.296 756.674ZM525.634 672.788V660.14H588.316V672.788H525.634ZM649.922 756.86C640.87 756.86 632.872 754.752 625.928 750.536C618.984 746.196 613.528 740.306 609.56 732.866C605.592 725.426 603.608 716.87 603.608 707.198C603.608 697.526 605.53 689.032 609.374 681.716C613.342 674.276 618.86 668.51 625.928 664.418C632.996 660.326 641.118 658.28 650.294 658.28C659.098 658.28 666.724 660.202 673.172 664.046C679.744 667.89 684.766 673.284 688.238 680.228C691.834 687.172 693.632 695.356 693.632 704.78C693.632 706.02 693.57 707.198 693.446 708.314C693.446 709.43 693.322 710.67 693.074 712.034H614.768V699.572H683.96L679.124 706.454C679.124 695.046 676.582 686.304 671.498 680.228C666.538 674.028 659.47 670.928 650.294 670.928C640.87 670.928 633.244 674.214 627.416 680.786C621.712 687.234 618.86 695.976 618.86 707.012C618.86 718.296 621.712 727.348 627.416 734.168C633.244 740.864 640.994 744.212 650.666 744.212C656.742 744.212 662.074 742.91 666.662 740.306C671.25 737.578 674.598 733.734 676.706 728.774H690.842C687.742 737.454 682.534 744.336 675.218 749.42C668.026 754.38 659.594 756.86 649.922 756.86ZM752.492 756.86C746.292 756.86 740.774 755.62 735.938 753.14C731.102 750.536 727.32 746.94 724.592 742.352C721.864 737.64 720.5 732.246 720.5 726.17V660.14H735.38V722.264C735.38 729.456 737.116 734.85 740.588 738.446C744.184 742.042 749.268 743.84 755.84 743.84C761.792 743.84 767.062 742.476 771.65 739.748C776.238 737.02 779.834 733.238 782.438 728.402C785.166 723.442 786.53 717.8 786.53 711.476L788.948 733.982C785.848 741.05 781.012 746.63 774.44 750.722C767.868 754.814 760.552 756.86 752.492 756.86ZM787.46 755V732.68H786.53V660.14H801.41V755H787.46ZM836.725 755V660.14H850.675V684.32H851.605V755H836.725ZM851.605 705.524L849.187 683.018C851.419 674.958 855.387 668.82 861.091 664.604C866.795 660.388 873.367 658.28 880.807 658.28C883.907 658.28 886.015 658.528 887.131 659.024V673.346C886.511 673.098 885.643 672.974 884.527 672.974C883.411 672.85 882.047 672.788 880.435 672.788C871.011 672.788 863.819 675.64 858.859 681.344C854.023 686.924 851.605 694.984 851.605 705.524Z" fill="#D7211B"/>
<path d="M212.098 755L207.718 756.031C208.196 758.063 210.01 759.5 212.098 759.5V755ZM210.982 747.746L206.487 747.95C206.49 748.018 206.494 748.086 206.5 748.153L210.982 747.746ZM210.796 737.33H215.296C215.296 734.845 213.281 732.83 210.796 732.83V737.33ZM209.866 737.33H205.366C205.366 739.815 207.381 741.83 209.866 741.83V737.33ZM204.844 676.136L201.546 679.198C201.584 679.239 201.623 679.279 201.662 679.318L204.844 676.136ZM171.736 675.392L174.257 679.119C174.265 679.114 174.273 679.109 174.281 679.103L171.736 675.392ZM164.668 687.668V692.168C166.992 692.168 168.933 690.399 169.149 688.085L164.668 687.668ZM150.346 687.668L145.856 687.365C145.772 688.608 146.208 689.83 147.059 690.741C147.909 691.651 149.1 692.168 150.346 692.168V687.668ZM161.878 666.092L164.547 669.715L164.547 669.715L161.878 666.092ZM224.932 745.886L220.467 746.444C220.468 746.452 220.469 746.46 220.47 746.468L224.932 745.886ZM226.42 755V759.5C227.762 759.5 229.035 758.901 229.889 757.866C230.744 756.831 231.093 755.468 230.839 754.15L226.42 755ZM156.112 749.792L153.202 753.224C153.229 753.247 153.256 753.269 153.283 753.291L156.112 749.792ZM181.036 701.06L180.288 696.623L180.28 696.624L181.036 701.06ZM214.144 695.48H218.644C218.644 694.156 218.061 692.899 217.05 692.044C216.038 691.189 214.702 690.822 213.396 691.043L214.144 695.48ZM214.144 707.756L214.84 712.202C217.03 711.859 218.644 709.972 218.644 707.756H214.144ZM183.268 712.592L182.572 708.146C182.566 708.147 182.56 708.148 182.554 708.149L183.268 712.592ZM167.458 718.172L164.819 714.527L164.819 714.527L167.458 718.172ZM166.9 740.492L164.156 744.059C164.178 744.075 164.2 744.092 164.221 744.108L166.9 740.492ZM201.868 738.632L204.484 742.294C204.489 742.29 204.494 742.286 204.5 742.282L201.868 738.632ZM209.866 723.752L214.292 722.942C213.873 720.652 211.777 719.06 209.459 719.27C207.141 719.481 205.366 721.424 205.366 723.752H209.866ZM212.284 736.958L216.578 738.305C216.797 737.607 216.842 736.867 216.71 736.148L212.284 736.958ZM200.566 751.652L198.263 747.786C198.251 747.793 198.238 747.801 198.226 747.808L200.566 751.652ZM212.098 755L216.478 753.969C216.041 752.112 215.697 749.909 215.464 747.339L210.982 747.746L206.5 748.153C206.763 751.039 207.163 753.672 207.718 756.031L212.098 755ZM210.982 747.746L215.477 747.542C215.358 744.908 215.296 741.51 215.296 737.33H210.796H206.296C206.296 741.582 206.358 745.128 206.487 747.95L210.982 747.746ZM210.796 737.33V732.83H209.866V737.33V741.83H210.796V737.33ZM209.866 737.33H214.366V691.946H209.866H205.366V737.33H209.866ZM209.866 691.946H214.366C214.366 684.17 212.568 677.496 208.026 672.954L204.844 676.136L201.662 679.318C203.816 681.472 205.366 685.338 205.366 691.946H209.866ZM204.844 676.136L208.142 673.074C203.697 668.287 196.929 666.428 189.034 666.428V670.928V675.428C195.771 675.428 199.543 677.041 201.546 679.198L204.844 676.136ZM189.034 670.928V666.428C181.258 666.428 174.51 668.034 169.191 671.681L171.736 675.392L174.281 679.103C177.642 676.798 182.426 675.428 189.034 675.428V670.928ZM171.736 675.392L169.215 671.665C163.818 675.315 160.801 680.658 160.187 687.251L164.668 687.668L169.149 688.085C169.527 684.014 171.222 681.173 174.257 679.119L171.736 675.392ZM164.668 687.668V683.168H150.346V687.668V692.168H164.668V687.668ZM150.346 687.668L154.836 687.971C155.371 680.044 158.601 674.096 164.547 669.715L161.878 666.092L159.209 662.469C151.019 668.504 146.561 676.94 145.856 687.365L150.346 687.668ZM161.878 666.092L164.547 669.715C170.639 665.226 178.857 662.78 189.592 662.78V658.28V653.78C177.511 653.78 167.253 656.542 159.209 662.469L161.878 666.092ZM189.592 658.28V662.78C200.751 662.78 208.135 665.43 212.671 669.867L215.818 666.65L218.965 663.433C212.093 656.71 201.993 653.78 189.592 653.78V658.28ZM215.818 666.65L212.671 669.867C217.212 674.309 219.874 681.319 219.874 691.76H224.374H228.874C228.874 679.881 225.832 670.151 218.965 663.433L215.818 666.65ZM224.374 691.76H219.874V737.33H224.374H228.874V691.76H224.374ZM224.374 737.33H219.874C219.874 740.262 220.074 743.301 220.467 746.444L224.932 745.886L229.397 745.328C229.046 742.519 228.874 739.854 228.874 737.33H224.374ZM224.932 745.886L220.47 746.468C220.855 749.421 221.366 752.549 222.001 755.85L226.42 755L230.839 754.15C230.234 751.003 229.753 748.055 229.394 745.304L224.932 745.886ZM226.42 755V750.5H212.098V755V759.5H226.42V755ZM179.548 756.86V752.36C170.463 752.36 163.751 750.182 158.941 746.293L156.112 749.792L153.283 753.291C160.129 758.826 169.041 761.36 179.548 761.36V756.86ZM156.112 749.792L159.022 746.36C154.446 742.48 152.056 737.227 152.056 730.076H147.556H143.056C143.056 739.541 146.37 747.432 153.202 753.224L156.112 749.792ZM147.556 730.076H152.056C152.056 722.923 154.442 717.85 158.932 714.238L156.112 710.732L153.292 707.226C146.374 712.79 143.056 720.613 143.056 730.076H147.556ZM156.112 710.732L158.932 714.238C163.809 710.316 171.28 707.288 181.792 705.496L181.036 701.06L180.28 696.624C168.968 698.552 159.823 701.972 153.292 707.226L156.112 710.732ZM181.036 701.06L181.784 705.497L214.892 699.917L214.144 695.48L213.396 691.043L180.288 696.623L181.036 701.06ZM214.144 695.48H209.644V707.756H214.144H218.644V695.48H214.144ZM214.144 707.756L213.448 703.31L182.572 708.146L183.268 712.592L183.964 717.038L214.84 712.202L214.144 707.756ZM183.268 712.592L182.554 708.149C175.279 709.318 169.223 711.338 164.819 714.527L167.458 718.172L170.097 721.817C172.885 719.798 177.369 718.098 183.982 717.035L183.268 712.592ZM167.458 718.172L164.819 714.527C159.904 718.086 157.564 723.311 157.564 729.518H162.064H166.564C166.564 725.805 167.82 723.466 170.097 721.817L167.458 718.172ZM162.064 729.518H157.564C157.564 735.455 159.61 740.561 164.156 744.059L166.9 740.492L169.644 736.925C167.742 735.463 166.564 733.253 166.564 729.518H162.064ZM166.9 740.492L164.221 744.108C168.665 747.4 174.677 748.712 181.594 748.712V744.212V739.712C175.615 739.712 171.831 738.544 169.579 736.876L166.9 740.492ZM181.594 744.212V748.712C190.561 748.712 198.313 746.701 204.484 742.294L201.868 738.632L199.252 734.97C195.007 738.003 189.243 739.712 181.594 739.712V744.212ZM201.868 738.632L204.5 742.282C210.893 737.673 214.366 731.407 214.366 723.752H209.866H205.366C205.366 728.249 203.507 731.903 199.236 734.982L201.868 738.632ZM209.866 723.752L205.44 724.562L207.858 737.768L212.284 736.958L216.71 736.148L214.292 722.942L209.866 723.752ZM212.284 736.958L207.99 735.611C206.346 740.852 203.165 744.866 198.263 747.786L200.566 751.652L202.869 755.518C209.623 751.494 214.254 745.712 216.578 738.305L212.284 736.958ZM200.566 751.652L198.226 747.808C193.381 750.758 187.231 752.36 179.548 752.36V756.86V761.36C188.481 761.36 196.343 759.49 202.906 755.496L200.566 751.652ZM258.636 755H254.136C254.136 757.485 256.151 759.5 258.636 759.5V755ZM258.636 660.14V655.64C256.151 655.64 254.136 657.655 254.136 660.14H258.636ZM272.586 660.14H277.086C277.086 657.655 275.071 655.64 272.586 655.64V660.14ZM272.586 682.46H268.086C268.086 684.945 270.101 686.96 272.586 686.96V682.46ZM273.516 682.46H278.016C278.016 679.975 276.001 677.96 273.516 677.96V682.46ZM273.516 755V759.5C276.001 759.5 278.016 757.485 278.016 755H273.516ZM322.62 755H318.12C318.12 757.485 320.135 759.5 322.62 759.5V755ZM317.784 676.322L321.025 673.201L317.784 676.322ZM288.396 675.392L286.096 671.524L286.096 671.524L288.396 675.392ZM277.422 686.738L273.502 684.527C273.488 684.553 273.474 684.579 273.46 684.605L277.422 686.738ZM273.516 703.664L269.042 704.145C269.297 706.523 271.368 708.285 273.756 708.158C276.145 708.03 278.016 706.056 278.016 703.664H273.516ZM271.098 681.158L267.004 679.29C266.669 680.025 266.537 680.836 266.624 681.639L271.098 681.158ZM285.606 664.418L288.017 668.217L288.017 668.217L285.606 664.418ZM328.944 666.464L325.833 669.716C325.846 669.728 325.858 669.74 325.871 669.751L328.944 666.464ZM337.5 755V759.5C339.985 759.5 342 757.485 342 755H337.5ZM386.604 755H382.104C382.104 757.485 384.119 759.5 386.604 759.5V755ZM381.768 676.322L385.009 673.201L385.009 673.201L381.768 676.322ZM352.38 675.392L350.08 671.524L350.08 671.524L352.38 675.392ZM341.406 686.738L337.486 684.527C337.472 684.553 337.458 684.579 337.444 684.605L341.406 686.738ZM337.5 703.664L333.06 704.398C333.442 706.709 335.533 708.341 337.868 708.149C340.203 707.957 342 706.007 342 703.664H337.5ZM333.78 681.158L329.686 679.29C329.315 680.104 329.194 681.01 329.34 681.892L333.78 681.158ZM348.66 664.418L346.313 660.578L346.313 660.578L348.66 664.418ZM392.742 666.464L389.666 669.749C389.679 669.761 389.692 669.773 389.704 669.784L392.742 666.464ZM401.484 755V759.5C403.969 759.5 405.984 757.485 405.984 755H401.484ZM258.636 755H263.136V660.14H258.636H254.136V755H258.636ZM258.636 660.14V664.64H272.586V660.14V655.64H258.636V660.14ZM272.586 660.14H268.086V682.46H272.586H277.086V660.14H272.586ZM272.586 682.46V686.96H273.516V682.46V677.96H272.586V682.46ZM273.516 682.46H269.016V755H273.516H278.016V682.46H273.516ZM273.516 755V750.5H258.636V755V759.5H273.516V755ZM322.62 755H327.12V692.132H322.62H318.12V755H322.62ZM322.62 692.132H327.12C327.12 684.394 325.402 677.746 321.025 673.201L317.784 676.322L314.542 679.443C316.613 681.594 318.12 685.486 318.12 692.132H322.62ZM317.784 676.322L321.025 673.201C316.714 668.724 310.739 666.8 303.834 666.8V671.3V675.8C309.08 675.8 312.405 677.224 314.542 679.443L317.784 676.322ZM303.834 671.3V666.8C297.378 666.8 291.428 668.354 286.096 671.524L288.396 675.392L290.696 679.26C294.54 676.974 298.882 675.8 303.834 675.8V671.3ZM288.396 675.392L286.096 671.524C280.805 674.67 276.6 679.036 273.502 684.527L277.422 686.738L281.341 688.949C283.699 684.768 286.811 681.57 290.696 679.26L288.396 675.392ZM277.422 686.738L273.46 684.605C270.446 690.202 269.016 696.601 269.016 703.664H273.516H278.016C278.016 697.831 279.19 692.946 281.384 688.871L277.422 686.738ZM273.516 703.664L277.99 703.183L275.572 680.677L271.098 681.158L266.624 681.639L269.042 704.145L273.516 703.664ZM271.098 681.158L275.192 683.026C278.061 676.736 282.319 671.834 288.017 668.217L285.606 664.418L283.195 660.619C275.997 665.186 270.583 671.444 267.004 679.29L271.098 681.158ZM285.606 664.418L288.017 668.217C293.751 664.578 299.922 662.78 306.624 662.78V658.28V653.78C298.197 653.78 290.356 656.074 283.195 660.619L285.606 664.418ZM306.624 658.28V662.78C314.843 662.78 321.102 665.191 325.833 669.716L328.944 666.464L332.054 663.212C325.377 656.825 316.756 653.78 306.624 653.78V658.28ZM328.944 666.464L325.871 669.751C330.504 674.083 333 680.058 333 688.226H337.5H342C342 678.042 338.791 669.509 332.017 663.177L328.944 666.464ZM337.5 688.226H333V755H337.5H342V688.226H337.5ZM337.5 755V750.5H322.62V755V759.5H337.5V755ZM386.604 755H391.104V692.132H386.604H382.104V755H386.604ZM386.604 692.132H391.104C391.104 684.394 389.386 677.746 385.009 673.201L381.768 676.322L378.526 679.443C380.597 681.594 382.104 685.486 382.104 692.132H386.604ZM381.768 676.322L385.009 673.201C380.698 668.724 374.723 666.8 367.818 666.8V671.3V675.8C373.064 675.8 376.389 677.224 378.526 679.443L381.768 676.322ZM367.818 671.3V666.8C361.362 666.8 355.412 668.354 350.08 671.524L352.38 675.392L354.68 679.26C358.524 676.974 362.866 675.8 367.818 675.8V671.3ZM352.38 675.392L350.08 671.524C344.789 674.67 340.584 679.036 337.486 684.527L341.406 686.738L345.325 688.949C347.683 684.768 350.795 681.57 354.68 679.26L352.38 675.392ZM341.406 686.738L337.444 684.605C334.43 690.202 333 696.601 333 703.664H337.5H342C342 697.831 343.174 692.946 345.368 688.871L341.406 686.738ZM337.5 703.664L341.94 702.93L338.22 680.424L333.78 681.158L329.34 681.892L333.06 704.398L337.5 703.664ZM333.78 681.158L337.874 683.026C340.721 676.783 345.068 671.887 351.006 668.258L348.66 664.418L346.313 660.578C338.859 665.133 333.286 671.397 329.686 679.29L333.78 681.158ZM348.66 664.418L351.006 668.258C357.011 664.588 363.394 662.78 370.236 662.78V658.28V653.78C361.702 653.78 353.7 656.064 346.313 660.578L348.66 664.418ZM370.236 658.28V662.78C378.453 662.78 384.797 665.19 389.666 669.749L392.742 666.464L395.817 663.179C389.031 656.826 380.371 653.78 370.236 653.78V658.28ZM392.742 666.464L389.704 669.784C394.447 674.123 396.984 680.089 396.984 688.226H401.484H405.984C405.984 678.011 402.692 669.469 395.779 663.144L392.742 666.464ZM401.484 688.226H396.984V755H401.484H405.984V688.226H401.484ZM401.484 755V750.5H386.604V755V759.5H401.484V755ZM493.358 755L488.977 756.031C489.456 758.063 491.269 759.5 493.358 759.5V755ZM492.242 747.746L487.746 747.95C487.749 748.018 487.754 748.086 487.76 748.153L492.242 747.746ZM492.056 737.33H496.556C496.556 734.845 494.541 732.83 492.056 732.83V737.33ZM491.126 737.33H486.626C486.626 739.815 488.64 741.83 491.126 741.83V737.33ZM486.104 676.136L482.806 679.198C482.844 679.239 482.882 679.279 482.922 679.318L486.104 676.136ZM452.996 675.392L455.517 679.119C455.525 679.114 455.533 679.109 455.54 679.103L452.996 675.392ZM445.928 687.668V692.168C448.251 692.168 450.193 690.399 450.408 688.085L445.928 687.668ZM431.606 687.668L427.116 687.365C427.032 688.608 427.467 689.83 428.318 690.741C429.169 691.651 430.359 692.168 431.606 692.168V687.668ZM443.138 666.092L445.807 669.715L445.807 669.715L443.138 666.092ZM506.192 745.886L501.726 746.444C501.727 746.452 501.728 746.46 501.729 746.468L506.192 745.886ZM507.68 755V759.5C509.022 759.5 510.294 758.901 511.149 757.866C512.004 756.831 512.352 755.468 512.099 754.15L507.68 755ZM437.372 749.792L434.462 753.224C434.488 753.247 434.515 753.269 434.542 753.291L437.372 749.792ZM462.296 701.06L461.548 696.623L461.539 696.624L462.296 701.06ZM495.404 695.48H499.904C499.904 694.156 499.32 692.899 498.309 692.044C497.298 691.189 495.962 690.822 494.656 691.043L495.404 695.48ZM495.404 707.756L496.1 712.202C498.29 711.859 499.904 709.972 499.904 707.756H495.404ZM464.528 712.592L463.831 708.146C463.825 708.147 463.819 708.148 463.814 708.149L464.528 712.592ZM448.718 718.172L446.078 714.527L446.078 714.527L448.718 718.172ZM448.16 740.492L445.416 744.059C445.437 744.075 445.459 744.092 445.481 744.108L448.16 740.492ZM483.128 738.632L485.743 742.294C485.749 742.29 485.754 742.286 485.759 742.282L483.128 738.632ZM491.126 723.752L495.552 722.942C495.133 720.652 493.037 719.06 490.719 719.27C488.401 719.481 486.626 721.424 486.626 723.752H491.126ZM493.544 736.958L497.837 738.305C498.056 737.607 498.102 736.867 497.97 736.148L493.544 736.958ZM481.826 751.652L479.522 747.786C479.51 747.793 479.498 747.801 479.486 747.808L481.826 751.652ZM493.358 755L497.738 753.969C497.301 752.112 496.957 749.909 496.723 747.339L492.242 747.746L487.76 748.153C488.022 751.039 488.422 753.672 488.977 756.031L493.358 755ZM492.242 747.746L496.737 747.542C496.617 744.908 496.556 741.51 496.556 737.33H492.056H487.556C487.556 741.582 487.618 745.128 487.746 747.95L492.242 747.746ZM492.056 737.33V732.83H491.126V737.33V741.83H492.056V737.33ZM491.126 737.33H495.626V691.946H491.126H486.626V737.33H491.126ZM491.126 691.946H495.626C495.626 684.17 493.828 677.496 489.286 672.954L486.104 676.136L482.922 679.318C485.075 681.472 486.626 685.338 486.626 691.946H491.126ZM486.104 676.136L489.401 673.074C484.956 668.287 478.188 666.428 470.294 666.428V670.928V675.428C477.031 675.428 480.803 677.041 482.806 679.198L486.104 676.136ZM470.294 670.928V666.428C462.518 666.428 455.769 668.034 450.451 671.681L452.996 675.392L455.54 679.103C458.902 676.798 463.685 675.428 470.294 675.428V670.928ZM452.996 675.392L450.474 671.665C445.078 675.315 442.06 680.658 441.447 687.251L445.928 687.668L450.408 688.085C450.787 684.014 452.482 681.173 455.517 679.119L452.996 675.392ZM445.928 687.668V683.168H431.606V687.668V692.168H445.928V687.668ZM431.606 687.668L436.095 687.971C436.631 680.044 439.861 674.096 445.807 669.715L443.138 666.092L440.468 662.469C432.278 668.504 427.82 676.94 427.116 687.365L431.606 687.668ZM443.138 666.092L445.807 669.715C451.898 665.226 460.117 662.78 470.852 662.78V658.28V653.78C458.771 653.78 448.513 656.542 440.468 662.469L443.138 666.092ZM470.852 658.28V662.78C482.011 662.78 489.395 665.43 493.931 669.867L497.078 666.65L500.224 663.433C493.352 656.71 483.253 653.78 470.852 653.78V658.28ZM497.078 666.65L493.931 669.867C498.472 674.309 501.134 681.319 501.134 691.76H505.634H510.134C510.134 679.881 507.091 670.151 500.224 663.433L497.078 666.65ZM505.634 691.76H501.134V737.33H505.634H510.134V691.76H505.634ZM505.634 737.33H501.134C501.134 740.262 501.333 743.301 501.726 746.444L506.192 745.886L510.657 745.328C510.306 742.519 510.134 739.854 510.134 737.33H505.634ZM506.192 745.886L501.729 746.468C502.115 749.421 502.626 752.549 503.261 755.85L507.68 755L512.099 754.15C511.493 751.003 511.013 748.055 510.654 745.304L506.192 745.886ZM507.68 755V750.5H493.358V755V759.5H507.68V755ZM460.808 756.86V752.36C451.722 752.36 445.011 750.182 440.201 746.293L437.372 749.792L434.542 753.291C441.388 758.826 450.301 761.36 460.808 761.36V756.86ZM437.372 749.792L440.282 746.36C435.706 742.48 433.316 737.227 433.316 730.076H428.816H424.316C424.316 739.541 427.63 747.432 434.462 753.224L437.372 749.792ZM428.816 730.076H433.316C433.316 722.923 435.702 717.85 440.192 714.238L437.372 710.732L434.551 707.226C427.633 712.79 424.316 720.613 424.316 730.076H428.816ZM437.372 710.732L440.192 714.238C445.069 710.316 452.54 707.288 463.052 705.496L462.296 701.06L461.539 696.624C450.228 698.552 441.082 701.972 434.551 707.226L437.372 710.732ZM462.296 701.06L463.043 705.497L496.151 699.917L495.404 695.48L494.656 691.043L461.548 696.623L462.296 701.06ZM495.404 695.48H490.904V707.756H495.404H499.904V695.48H495.404ZM495.404 707.756L494.707 703.31L463.831 708.146L464.528 712.592L465.224 717.038L496.1 712.202L495.404 707.756ZM464.528 712.592L463.814 708.149C456.538 709.318 450.483 711.338 446.078 714.527L448.718 718.172L451.357 721.817C454.144 719.798 458.629 718.098 465.242 717.035L464.528 712.592ZM448.718 718.172L446.078 714.527C441.164 718.086 438.824 723.311 438.824 729.518H443.324H447.824C447.824 725.805 449.079 723.466 451.357 721.817L448.718 718.172ZM443.324 729.518H438.824C438.824 735.455 440.869 740.561 445.416 744.059L448.16 740.492L450.903 736.925C449.002 735.463 447.824 733.253 447.824 729.518H443.324ZM448.16 740.492L445.481 744.108C449.925 747.4 455.936 748.712 462.854 748.712V744.212V739.712C456.875 739.712 453.09 738.544 450.838 736.876L448.16 740.492ZM462.854 744.212V748.712C471.821 748.712 479.573 746.701 485.743 742.294L483.128 738.632L480.512 734.97C476.266 738.003 470.502 739.712 462.854 739.712V744.212ZM483.128 738.632L485.759 742.282C492.152 737.673 495.626 731.407 495.626 723.752H491.126H486.626C486.626 728.249 484.767 731.903 480.496 734.982L483.128 738.632ZM491.126 723.752L486.699 724.562L489.117 737.768L493.544 736.958L497.97 736.148L495.552 722.942L491.126 723.752ZM493.544 736.958L489.25 735.611C487.606 740.852 484.424 744.866 479.522 747.786L481.826 751.652L484.129 755.518C490.883 751.494 495.514 745.712 497.837 738.305L493.544 736.958ZM481.826 751.652L479.486 747.808C474.64 750.758 468.491 752.36 460.808 752.36V756.86V761.36C469.741 761.36 477.603 759.49 484.165 755.496L481.826 751.652ZM552.232 749.606L549.009 752.746C549.037 752.774 549.064 752.802 549.092 752.829L552.232 749.606ZM545.164 638.006L543.584 633.793C541.828 634.451 540.664 636.13 540.664 638.006H545.164ZM560.044 632.426H564.544C564.544 630.95 563.821 629.568 562.608 628.727C561.395 627.887 559.846 627.694 558.464 628.213L560.044 632.426ZM564.136 740.306L561.109 743.636L561.109 743.636L564.136 740.306ZM583.852 743.654L584.489 748.109C584.571 748.097 584.653 748.083 584.735 748.067L583.852 743.654ZM588.316 742.352H592.816C592.816 740.829 592.046 739.409 590.769 738.579C589.491 737.749 587.881 737.621 586.489 738.24L588.316 742.352ZM588.316 755L589.988 759.178C591.696 758.495 592.816 756.84 592.816 755H588.316ZM582.922 756.116L582.451 751.641C582.361 751.65 582.272 751.662 582.183 751.677L582.922 756.116ZM525.634 672.788H521.134C521.134 675.273 523.149 677.288 525.634 677.288V672.788ZM525.634 660.14V655.64C523.149 655.64 521.134 657.655 521.134 660.14H525.634ZM588.316 660.14H592.816C592.816 657.655 590.802 655.64 588.316 655.64V660.14ZM588.316 672.788V677.288C590.802 677.288 592.816 675.273 592.816 672.788H588.316ZM575.296 756.674V752.174C565.292 752.174 559.002 749.919 555.373 746.383L552.232 749.606L549.092 752.829C555.135 758.717 564.221 761.174 575.296 761.174V756.674ZM552.232 749.606L555.455 746.466C551.81 742.724 549.664 737.063 549.664 728.774H545.164H540.664C540.664 738.589 543.231 746.816 549.009 752.746L552.232 749.606ZM545.164 728.774H549.664V638.006H545.164H540.664V728.774H545.164ZM545.164 638.006L546.744 642.219L561.624 636.639L560.044 632.426L558.464 628.213L543.584 633.793L545.164 638.006ZM560.044 632.426H555.544V728.588H560.044H564.544V632.426H560.044ZM560.044 728.588H555.544C555.544 734.612 557.088 739.98 561.109 743.636L564.136 740.306L567.163 736.976C565.729 735.672 564.544 733.228 564.544 728.588H560.044ZM564.136 740.306L561.109 743.636C565.072 747.238 570.918 748.526 577.528 748.526V744.026V739.526C571.739 739.526 568.657 738.334 567.163 736.976L564.136 740.306ZM577.528 744.026V748.526C580.142 748.526 582.476 748.396 584.489 748.109L583.852 743.654L583.216 739.199C581.757 739.408 579.875 739.526 577.528 739.526V744.026ZM583.852 743.654L584.735 748.067C586.763 747.661 588.607 747.147 590.144 746.464L588.316 742.352L586.489 738.24C585.794 738.549 584.662 738.903 582.97 739.241L583.852 743.654ZM588.316 742.352H583.816V755H588.316H592.816V742.352H588.316ZM588.316 755L586.645 750.822C585.977 751.089 584.661 751.408 582.451 751.641L582.922 756.116L583.393 760.591C585.896 760.328 588.176 759.903 589.988 759.178L588.316 755ZM582.922 756.116L582.183 751.677C580.248 752 577.961 752.174 575.296 752.174V756.674V761.174C578.336 761.174 581.132 760.976 583.662 760.555L582.922 756.116ZM525.634 672.788H530.134V660.14H525.634H521.134V672.788H525.634ZM525.634 660.14V664.64H588.316V660.14V655.64H525.634V660.14ZM588.316 660.14H583.816V672.788H588.316H592.816V660.14H588.316ZM588.316 672.788V668.288H525.634V672.788V677.288H588.316V672.788ZM625.928 750.536L623.543 754.352C623.559 754.362 623.576 754.372 623.592 754.383L625.928 750.536ZM609.56 732.866L613.53 730.748L609.56 732.866ZM609.374 681.716L605.403 679.598C605.399 679.607 605.394 679.615 605.39 679.623L609.374 681.716ZM625.928 664.418L628.182 668.312L628.182 668.312L625.928 664.418ZM673.172 664.046L670.867 667.911C670.878 667.918 670.889 667.924 670.9 667.93L673.172 664.046ZM688.238 680.228L684.213 682.24C684.222 682.259 684.232 682.278 684.242 682.297L688.238 680.228ZM693.446 708.314L688.973 707.817C688.955 707.982 688.946 708.148 688.946 708.314H693.446ZM693.074 712.034V716.534C695.248 716.534 697.112 714.979 697.501 712.839L693.074 712.034ZM614.768 712.034H610.268C610.268 714.519 612.282 716.534 614.768 716.534V712.034ZM614.768 699.572V695.072C612.282 695.072 610.268 697.087 610.268 699.572H614.768ZM683.96 699.572L687.642 702.159C688.607 700.785 688.727 698.988 687.953 697.497C687.179 696.007 685.639 695.072 683.96 695.072V699.572ZM679.124 706.454H674.624C674.624 708.417 675.896 710.153 677.767 710.745C679.638 711.336 681.677 710.647 682.806 709.041L679.124 706.454ZM671.498 680.228L667.984 683.039C668.004 683.065 668.025 683.09 668.046 683.116L671.498 680.228ZM627.416 680.786L624.049 677.8L624.045 677.804L627.416 680.786ZM627.416 734.168L623.964 737.055C623.983 737.078 624.002 737.1 624.021 737.122L627.416 734.168ZM666.662 740.306L668.883 744.22C668.909 744.205 668.935 744.189 668.962 744.174L666.662 740.306ZM676.706 728.774V724.274C674.901 724.274 673.27 725.353 672.564 727.014L676.706 728.774ZM690.842 728.774L695.08 730.288C695.572 728.909 695.363 727.378 694.52 726.182C693.677 724.986 692.305 724.274 690.842 724.274V728.774ZM675.218 749.42L677.772 753.124C677.777 753.121 677.781 753.118 677.786 753.115L675.218 749.42ZM649.922 756.86V752.36C641.597 752.36 634.425 750.43 628.263 746.689L625.928 750.536L623.592 754.383C631.319 759.074 640.143 761.36 649.922 761.36V756.86ZM625.928 750.536L628.313 746.72C622.057 742.81 617.139 737.515 613.53 730.748L609.56 732.866L605.589 734.984C609.916 743.097 615.91 749.582 623.543 754.352L625.928 750.536ZM609.56 732.866L613.53 730.748C609.958 724.05 608.108 716.241 608.108 707.198H603.608H599.108C599.108 717.499 601.225 726.802 605.589 734.984L609.56 732.866ZM603.608 707.198H608.108C608.108 698.131 609.906 690.378 613.357 683.809L609.374 681.716L605.39 679.623C601.153 687.686 599.108 696.921 599.108 707.198H603.608ZM609.374 681.716L613.344 683.834C616.931 677.109 621.865 671.97 628.182 668.312L625.928 664.418L623.673 660.524C615.854 665.05 609.753 671.443 605.403 679.598L609.374 681.716ZM625.928 664.418L628.182 668.312C634.484 664.664 641.81 662.78 650.294 662.78V658.28V653.78C640.426 653.78 631.508 655.988 623.673 660.524L625.928 664.418ZM650.294 658.28V662.78C658.428 662.78 665.229 664.55 670.867 667.911L673.172 664.046L675.476 660.181C668.219 655.854 659.767 653.78 650.294 653.78V658.28ZM673.172 664.046L670.9 667.93C676.703 671.324 681.123 676.061 684.213 682.24L688.238 680.228L692.263 678.216C688.408 670.507 682.785 664.455 675.444 660.162L673.172 664.046ZM688.238 680.228L684.242 682.297C687.445 688.483 689.132 695.93 689.132 704.78H693.632H698.132C698.132 694.782 696.222 685.861 692.234 678.159L688.238 680.228ZM693.632 704.78H689.132C689.132 705.871 689.077 706.882 688.973 707.817L693.446 708.314L697.918 708.811C698.062 707.514 698.132 706.169 698.132 704.78H693.632ZM693.446 708.314H688.946C688.946 709.105 688.857 710.07 688.646 711.229L693.074 712.034L697.501 712.839C697.786 711.27 697.946 709.755 697.946 708.314H693.446ZM693.074 712.034V707.534H614.768V712.034V716.534H693.074V712.034ZM614.768 712.034H619.268V699.572H614.768H610.268V712.034H614.768ZM614.768 699.572V704.072H683.96V699.572V695.072H614.768V699.572ZM683.96 699.572L680.278 696.985L675.442 703.867L679.124 706.454L682.806 709.041L687.642 702.159L683.96 699.572ZM679.124 706.454H683.624C683.624 694.445 680.954 684.517 674.949 677.34L671.498 680.228L668.046 683.116C672.209 688.091 674.624 695.647 674.624 706.454H679.124ZM671.498 680.228L675.012 677.417C669.059 669.976 660.597 666.428 650.294 666.428V670.928V675.428C658.342 675.428 664.017 678.08 667.984 683.039L671.498 680.228ZM650.294 670.928V666.428C639.688 666.428 630.799 670.189 624.049 677.8L627.416 680.786L630.783 683.772C635.689 678.239 642.051 675.428 650.294 675.428V670.928ZM627.416 680.786L624.045 677.804C617.427 685.286 614.36 695.196 614.36 707.012H618.86H623.36C623.36 696.756 625.996 689.182 630.786 683.768L627.416 680.786ZM618.86 707.012H614.36C614.36 719.061 617.417 729.227 623.964 737.055L627.416 734.168L630.868 731.281C626.006 725.469 623.36 717.531 623.36 707.012H618.86ZM627.416 734.168L624.021 737.122C630.787 744.895 639.823 748.712 650.666 748.712V744.212V739.712C642.164 739.712 635.701 736.833 630.81 731.214L627.416 734.168ZM650.666 744.212V748.712C657.401 748.712 663.521 747.263 668.883 744.22L666.662 740.306L664.44 736.392C660.627 738.557 656.083 739.712 650.666 739.712V744.212ZM666.662 740.306L668.962 744.174C674.38 740.952 678.369 736.365 680.847 730.534L676.706 728.774L672.564 727.014C670.826 731.103 668.119 734.204 664.362 736.438L666.662 740.306ZM676.706 728.774V733.274H690.842V728.774V724.274H676.706V728.774ZM690.842 728.774L686.604 727.26C683.808 735.089 679.167 741.195 672.65 745.725L675.218 749.42L677.786 753.115C685.9 747.477 691.676 739.819 695.08 730.288L690.842 728.774ZM675.218 749.42L672.663 745.716C666.302 750.102 658.783 752.36 649.922 752.36V756.86V761.36C660.404 761.36 669.749 758.658 677.772 753.124L675.218 749.42ZM735.938 753.14L733.805 757.102C733.831 757.116 733.858 757.13 733.885 757.144L735.938 753.14ZM724.592 742.352L720.698 744.607C720.706 744.622 720.715 744.637 720.724 744.652L724.592 742.352ZM720.5 660.14V655.64C718.015 655.64 716 657.655 716 660.14H720.5ZM735.38 660.14H739.88C739.88 657.655 737.865 655.64 735.38 655.64V660.14ZM740.588 738.446L737.351 741.572C737.369 741.591 737.387 741.609 737.406 741.628L740.588 738.446ZM782.438 728.402L778.495 726.233C778.489 726.245 778.482 726.257 778.476 726.269L782.438 728.402ZM786.53 711.476L791.004 710.995C790.749 708.617 788.678 706.855 786.289 706.982C783.901 707.11 782.03 709.084 782.03 711.476H786.53ZM788.948 733.982L793.069 735.789C793.384 735.071 793.506 734.282 793.422 733.501L788.948 733.982ZM774.44 750.722L772.061 746.902L772.061 746.902L774.44 750.722ZM787.46 755H782.96C782.96 757.485 784.975 759.5 787.46 759.5V755ZM787.46 732.68H791.96C791.96 730.195 789.945 728.18 787.46 728.18V732.68ZM786.53 732.68H782.03C782.03 735.165 784.045 737.18 786.53 737.18V732.68ZM786.53 660.14V655.64C784.045 655.64 782.03 657.655 782.03 660.14H786.53ZM801.41 660.14H805.91C805.91 657.655 803.895 655.64 801.41 655.64V660.14ZM801.41 755V759.5C803.895 759.5 805.91 757.485 805.91 755H801.41ZM752.492 756.86V752.36C746.905 752.36 742.108 751.247 737.991 749.136L735.938 753.14L733.885 757.144C739.44 759.993 745.679 761.36 752.492 761.36V756.86ZM735.938 753.14L738.071 749.178C733.932 746.949 730.759 743.918 728.46 740.052L724.592 742.352L720.724 744.652C723.881 749.962 728.272 754.123 733.805 757.102L735.938 753.14ZM724.592 742.352L728.486 740.097C726.2 736.147 725 731.548 725 726.17H720.5H716C716 732.944 717.528 739.133 720.698 744.607L724.592 742.352ZM720.5 726.17H725V660.14H720.5H716V726.17H720.5ZM720.5 660.14V664.64H735.38V660.14V655.64H720.5V660.14ZM735.38 660.14H730.88V722.264H735.38H739.88V660.14H735.38ZM735.38 722.264H730.88C730.88 730.111 732.772 736.83 737.351 741.572L740.588 738.446L743.825 735.32C741.46 732.87 739.88 728.801 739.88 722.264H735.38ZM740.588 738.446L737.406 741.628C742.073 746.295 748.439 748.34 755.84 748.34V743.84V739.34C750.097 739.34 746.295 737.789 743.77 735.264L740.588 738.446ZM755.84 743.84V748.34C762.506 748.34 768.588 746.804 773.95 743.616L771.65 739.748L769.35 735.88C765.536 738.148 761.078 739.34 755.84 739.34V743.84ZM771.65 739.748L773.95 743.616C779.26 740.459 783.421 736.068 786.4 730.535L782.438 728.402L778.476 726.269C776.247 730.408 773.216 733.581 769.35 735.88L771.65 739.748ZM782.438 728.402L786.381 730.571C789.516 724.871 791.03 718.468 791.03 711.476H786.53H782.03C782.03 717.132 780.816 722.013 778.495 726.233L782.438 728.402ZM786.53 711.476L782.056 711.957L784.474 734.463L788.948 733.982L793.422 733.501L791.004 710.995L786.53 711.476ZM788.948 733.982L784.827 732.175C782.093 738.409 777.865 743.288 772.061 746.902L774.44 750.722L776.818 754.542C784.158 749.972 789.603 743.691 793.069 735.789L788.948 733.982ZM774.44 750.722L772.061 746.902C766.233 750.531 759.747 752.36 752.492 752.36V756.86V761.36C761.356 761.36 769.503 759.097 776.818 754.542L774.44 750.722ZM787.46 755H791.96V732.68H787.46H782.96V755H787.46ZM787.46 732.68V728.18H786.53V732.68V737.18H787.46V732.68ZM786.53 732.68H791.03V660.14H786.53H782.03V732.68H786.53ZM786.53 660.14V664.64H801.41V660.14V655.64H786.53V660.14ZM801.41 660.14H796.91V755H801.41H805.91V660.14H801.41ZM801.41 755V750.5H787.46V755V759.5H801.41V755ZM836.725 755H832.225C832.225 757.485 834.24 759.5 836.725 759.5V755ZM836.725 660.14V655.64C834.24 655.64 832.225 657.655 832.225 660.14H836.725ZM850.675 660.14H855.175C855.175 657.655 853.16 655.64 850.675 655.64V660.14ZM850.675 684.32H846.175C846.175 686.805 848.19 688.82 850.675 688.82V684.32ZM851.605 684.32H856.105C856.105 681.835 854.09 679.82 851.605 679.82V684.32ZM851.605 755V759.5C854.09 759.5 856.105 757.485 856.105 755H851.605ZM851.605 705.524L847.131 706.005C847.386 708.383 849.458 710.145 851.846 710.018C854.234 709.89 856.105 707.916 856.105 705.524H851.605ZM849.187 683.018L844.85 681.817C844.699 682.364 844.652 682.934 844.713 683.499L849.187 683.018ZM861.091 664.604L863.766 668.223L863.766 668.223L861.091 664.604ZM887.131 659.024H891.631C891.631 657.246 890.584 655.634 888.959 654.912L887.131 659.024ZM887.131 673.346L885.46 677.524C886.846 678.079 888.418 677.909 889.654 677.072C890.891 676.235 891.631 674.839 891.631 673.346H887.131ZM884.527 672.974L884.03 677.446C884.195 677.465 884.361 677.474 884.527 677.474V672.974ZM858.859 681.344L855.463 678.391L855.459 678.397L858.859 681.344ZM836.725 755H841.225V660.14H836.725H832.225V755H836.725ZM836.725 660.14V664.64H850.675V660.14V655.64H836.725V660.14ZM850.675 660.14H846.175V684.32H850.675H855.175V660.14H850.675ZM850.675 684.32V688.82H851.605V684.32V679.82H850.675V684.32ZM851.605 684.32H847.105V755H851.605H856.105V684.32H851.605ZM851.605 755V750.5H836.725V755V759.5H851.605V755ZM851.605 705.524L856.079 705.043L853.661 682.537L849.187 683.018L844.713 683.499L847.131 706.005L851.605 705.524ZM849.187 683.018L853.524 684.219C855.538 676.948 859.009 671.739 863.766 668.223L861.091 664.604L858.416 660.985C851.765 665.901 847.301 672.968 844.85 681.817L849.187 683.018ZM861.091 664.604L863.766 668.223C868.656 664.608 874.28 662.78 880.807 662.78V658.28V653.78C872.455 653.78 864.934 656.168 858.416 660.985L861.091 664.604ZM880.807 658.28V662.78C882.254 662.78 883.367 662.839 884.187 662.935C885.071 663.039 885.355 663.159 885.304 663.136L887.131 659.024L888.959 654.912C887.791 654.393 886.463 654.141 885.239 653.997C883.951 653.845 882.461 653.78 880.807 653.78V658.28ZM887.131 659.024H882.631V673.346H887.131H891.631V659.024H887.131ZM887.131 673.346L888.802 669.168C887.411 668.611 885.883 668.474 884.527 668.474V672.974V677.474C884.927 677.474 885.203 677.497 885.379 677.522C885.562 677.548 885.568 677.567 885.46 677.524L887.131 673.346ZM884.527 672.974L885.024 668.502C883.689 668.353 882.148 668.288 880.435 668.288V672.788V677.288C881.946 677.288 883.133 677.347 884.03 677.446L884.527 672.974ZM880.435 672.788V668.288C870.056 668.288 861.483 671.469 855.463 678.391L858.859 681.344L862.255 684.297C866.156 679.811 871.966 677.288 880.435 677.288V672.788ZM858.859 681.344L855.459 678.397C849.663 685.084 847.105 694.358 847.105 705.524H851.605H856.105C856.105 695.61 858.384 688.764 862.26 684.291L858.859 681.344Z" fill="#D7211B"/>
</svg>
